# xmcd CD database file
#
# Track frame offsets:
#	150
#	15372
#	28938
#	45234
#	60705
#	75999
#	89972
#	103969
#	118850
#	135498
#	148982
#	167633
#	183706
#	196426
#	211936
#	225406
#	240941
#	257227
#	274294
#	288664
#	302235
#	317703
#	334587
#
# Disc length: 4652 seconds
#
# Revision: 1
# Processed by: cddbd v1.5.2PL0 Copyright (c) Steve Scherf et al.
# Submitted via: CDex 1.70beta2
#
DISCID=54122a17
DTITLE=Various Artist - NU COUNTRY TRAXX 170
DYEAR=2013
DGENRE=Country
TTITLE0=Little Bit Of Everything - Keith Urban
TTITLE1=Aw Naw - Chris Young
TTITLE2=Goodbye Town - Lady Antebellum
TTITLE3=Sunny And 75 - Joe Nichols
TTITLE4=Round Here - Florida Georgia Line
TTITLE5=I Hope It Rains - Jana Kramer
TTITLE6=It Goes Like This - Thomas Rhett
TTITLE7=I Can't Leave A Good Thing - Billy Dean
TTITLE8=Whatever She's Got - David Nail
TTITLE9=Yellow Brick Road - Morgan Frazier
TTITLE10=Someone Somewhere Tonight - Kellie Pickler
TTITLE11=Lucky Sometimes - Weston Burt
TTITLE12=Gypsy Runaway Train - The Roys 
TTITLE13=There's A Girl Out There - Adam Fears
TTITLE14=Wild In Your Smile - Dustin Lynch
TTITLE15=Best Thing - Andy Gibson
TTITLE16=I Wanna Wake Up With You - Tyler Dean ft. Ashley Gearing
TTITLE17=If You Ever Get Lonely - Love And Theft
TTITLE18=You Got Me - Ashley Monroe
TTITLE19=Makin' This Boy Go Crazy - Dylan Scott
TTITLE20=I Guess That Says It All - Joanna Mosca
TTITLE21=Those Jeans - Ray Scott
TTITLE22=I Make This Bar My Home - Bobby Cargill
EXTD=YEAR: 2013
EXTT0=
EXTT1=
EXTT2=
EXTT3=
EXTT4=
EXTT5=
EXTT6=
EXTT7=
EXTT8=
EXTT9=
EXTT10=
EXTT11=
EXTT12=
EXTT13=
EXTT14=
EXTT15=
EXTT16=
EXTT17=
EXTT18=
EXTT19=
EXTT20=
EXTT21=
EXTT22=
PLAYORDER=
